<?xml version="1.0" encoding="UTF-8"?>
<!-- Generated by Pixelmator Pro 3.8 -->
<svg width="973" height="824" viewBox="0 0 973 824" xmlns="http://www.w3.org/2000/svg">
    <path id="Form" fill="#ffffff" fill-rule="evenodd" stroke="none" d="M 781.948242 363.719116 C 794.148682 382.924316 803.910461 398.625 811.512207 411 C 819.114014 423.375 827.038269 436.652283 829.121582 440.505096 C 831.204956 444.35788 834.701843 452.907898 836.892517 459.505096 C 839.08313 466.102295 842.982239 477.350006 845.557129 484.5 C 848.132019 491.649994 852.44519 503.971375 855.142029 511.880798 C 857.838806 519.790283 860.728455 530.220154 861.563354 535.05835 C 862.53656 540.697876 863.416687 556.17395 864.015503 578.177551 C 864.529236 597.054932 864.95697 622.400024 864.966003 634.5 C 864.975037 646.599976 864.541992 662.607788 864.003662 670.072815 C 863.427612 678.060486 862.011841 687.639038 860.563049 693.35022 C 859.209106 698.687683 856.109253 707.260071 853.674438 712.399963 C 851.239624 717.539856 847.443848 724.401245 845.239319 727.647522 C 843.034851 730.893799 837.984863 737.02594 834.017212 741.274536 C 830.0495 745.523071 823.359985 751.592041 819.151611 754.761108 C 814.943237 757.930176 807.864197 762.413269 803.42041 764.723511 C 798.976624 767.033752 791.127014 770.335693 785.976868 772.061157 C 778.453613 774.581665 773.975464 775.373901 763.194885 776.091431 C 755.814941 776.582581 646.664551 777.164917 520.638428 777.385498 C 394.612274 777.606079 277.325012 777.455505 260 777.050964 C 230.474625 776.361511 227.884842 776.151367 218.686829 773.69928 C 213.289581 772.260376 205.336731 769.554016 201.013824 767.684998 C 196.690933 765.81604 189.40686 761.785828 184.827011 758.729004 C 180.247147 755.67218 172.58403 749.297058 167.797852 744.562073 C 163.011688 739.827087 156.531174 732.098755 153.396744 727.387939 C 150.262299 722.677185 145.918457 714.700256 143.743759 709.661499 C 141.569061 704.622681 138.824554 696.77301 137.644882 692.217834 C 135.547043 684.11731 135.5 682.336304 135.5 611.026001 C 135.5 540.077881 135.558304 537.838989 137.667297 527.808167 C 138.900177 521.944275 145.122681 502.62561 152.099915 483 C 162.190475 454.617218 165.452515 446.638245 170.497238 438 C 173.869843 432.225006 181.71196 419.174988 187.924164 409 C 194.136383 398.825012 204.198105 382.399994 210.283569 372.5 C 216.369034 362.600006 224.726105 349.325012 228.854858 343 C 234.121063 334.932495 239.516342 328.350769 246.930847 320.948975 C 256.075256 311.820251 258.854706 309.705078 267.54953 305.258057 C 273.076782 302.431091 280.951782 299.155762 285.04953 297.979553 C 290.705231 296.35614 297.438293 295.591797 313 294.80658 C 324.274994 294.23761 353.413513 293.935913 377.752258 294.136047 C 422.004547 294.5 422.004547 294.5 423.534729 289 C 424.376312 285.974976 426.444061 279.450012 428.1297 274.5 C 429.815369 269.549988 433.852264 260.279602 437.100647 253.899048 C 440.34903 247.518555 446.129486 237.569946 449.946106 231.791077 C 455.317535 223.658081 462.299438 215.659851 480.846985 196.392029 C 494.025848 182.701416 515.764099 160.68042 529.154236 147.456421 C 542.544434 134.232483 563.400024 113.712646 575.5 101.856812 C 587.599976 90.000977 600.650024 77.986267 604.5 75.157532 C 608.349976 72.328735 614.932068 68.217102 619.126831 66.020569 C 623.321594 63.824097 631.646545 60.358032 637.626831 58.318237 C 648.435547 54.63147 648.61554 54.607056 667.990295 54.194336 C 682.57605 53.883667 689.372986 54.152039 695.000732 55.260742 C 699.136841 56.075623 707.159485 58.563171 712.828796 60.788757 C 718.498169 63.014282 727.422363 67.392639 732.660339 70.518433 C 740.558655 75.23175 746.050598 79.923584 764.841919 98.011475 C 777.303894 110.006836 796.724976 129.0495 808 140.32843 C 819.275024 151.607422 831.529114 164.29126 835.231323 168.514771 C 840.228821 174.215942 843.642456 179.581787 848.484436 189.346924 C 852.071472 196.581116 855.864319 205.90094 856.913025 210.057678 C 857.961731 214.214355 859.356812 222.089355 860.013123 227.557678 C 860.728333 233.516357 860.927734 241.106079 860.510803 246.5 C 860.128235 251.450012 858.529785 260.593689 856.95874 266.819397 C 855.135254 274.045593 852.268799 281.828308 849.031677 288.342102 C 846.242798 293.953979 841.857239 301.235229 839.285889 304.522705 C 836.714539 307.810242 822.761658 322.474304 808.27948 337.109558 L 781.948242 363.719116 Z M 372.631561 564 C 301.085449 564 274.843353 564.294189 268.157013 564.653687 L 256 565.307373 L 256 611.143555 L 256 656.979858 L 301.500244 657.250183 C 326.52536 657.398865 352.677826 657.628418 359.616821 657.760254 C 372.231354 658 372.233093 657.999695 371.747864 655.75 C 371.480957 654.512512 370.415985 649.50293 369.381287 644.617676 C 367.831055 637.298462 367.5 631.403259 367.5 611.117676 C 367.5 588.280273 367.685547 585.686401 370.065765 575.25 L 372.631561 564 Z M 743 565.303955 C 726.483887 564.293396 699.885071 564 673.236023 564 C 624.783203 564 624.783203 564 625.499451 566.75 C 625.893433 568.262512 627.045227 572.923889 628.05896 577.108582 C 629.072754 581.293335 630.374207 588.481506 630.951111 593.082336 C 631.528015 597.683228 631.996155 605.734314 631.991455 610.973755 C 631.986755 616.213196 631.525391 625.668945 630.966309 631.986572 C 630.407166 638.304199 629.517334 645.078735 628.988953 647.041077 C 628.46051 649.003418 627.740601 652.046936 627.389099 653.804443 C 626.75 657 626.75 657 684.244141 657 C 741.738342 657 741.738342 657 742.358154 653.25 C 742.699036 651.1875 742.982971 630.555908 742.989014 607.401978 L 743 565.303955 Z M 504.103058 632.923706 C 506.821838 628.255798 509.434998 622.221558 510.077118 619.12854 C 510.704865 616.104675 510.995697 611.654297 510.72345 609.238647 C 510.451172 606.82312 508.603851 601.618713 506.618286 597.67334 C 504.632721 593.728027 501.83252 589.180664 500.395599 587.568115 C 497.78302 584.63623 497.78302 584.63623 495.930084 587.068115 C 494.91098 588.40564 492.927948 592.046509 491.523376 595.158936 C 490.118805 598.271362 488.466125 603.324829 487.850769 606.388916 C 487.002411 610.613159 487.028564 613.467773 487.958923 618.196655 C 488.633759 621.626831 490.319397 626.698364 491.704803 629.466675 C 493.09021 632.234985 495.359192 636.012207 496.74704 637.860474 C 499.270325 641.220947 499.270325 641.220947 504.103058 632.923706 Z M 326.446014 413 C 311.762848 437.195099 307.350006 444.620087 307.166656 445.109741 C 306.97345 445.625763 342.494537 445.995331 391.666656 445.988922 C 476.5 445.977814 476.5 445.977814 473 443.338135 C 471.075012 441.886322 465.788666 436.944489 461.252625 432.356262 C 456.716553 427.768066 451.091553 421.270477 448.752625 417.917175 C 444.5 411.820282 444.5 411.820282 413.086914 412.410156 C 395.809723 412.734558 369.247589 413 354.059937 413 L 326.446014 413 Z M 736.386108 239.09375 C 698.095215 201.433594 683.609009 187.396484 679.490784 183.603271 L 672.002991 176.706543 L 663.532288 184.603271 C 658.873352 188.946472 640.868713 206.43811 623.521973 223.473633 C 606.175232 240.509094 592.098877 254.7724 592.241211 255.169861 C 592.383545 255.567322 595.424988 257.776001 599 260.078003 C 602.575012 262.380066 608.940063 267.12854 613.144531 270.630127 C 617.34906 274.131714 624.224915 280.648926 628.424194 285.112854 C 632.623535 289.576782 638.018555 295.775208 640.413208 298.887207 C 642.8078 301.999146 646.881592 308.02832 649.466125 312.2854 L 654.165222 320.025452 L 676.832642 298.060608 C 689.299683 285.979919 707.799377 267.770264 717.943054 257.594727 L 736.386108 239.09375 Z"/>
    <path id="path1" fill="#254169" fill-rule="evenodd" stroke="none" d="M 724.395935 447.749878 C 716.841919 434.469391 714.450928 429.578583 714.209045 428.313354 C 713.851868 426.444702 716.465393 423.267761 728.134644 411.385864 C 736.035583 403.340973 746.511719 393.143097 751.414917 388.723907 C 760.329773 380.689026 760.329773 380.689026 762.146484 382.932556 C 763.14563 384.166473 772.58606 399.198944 783.125244 416.338043 C 793.664368 433.477112 803.836609 450.308197 805.730164 453.740448 C 807.623718 457.172699 809.021606 460.380615 808.836548 460.869141 C 808.651428 461.357666 803.39624 459.758362 797.158386 457.315094 C 790.920471 454.871857 781.920471 451.967316 777.158386 450.860565 C 770.461426 449.304169 763.504456 448.723907 746.447998 448.299103 L 724.395935 447.749878 Z M 273.747894 447.74704 C 234.570099 448.722137 227.534424 449.305389 220.922974 450.842804 C 216.205612 451.939758 208.105606 454.505341 202.922974 456.544067 C 197.740341 458.582825 192.487503 460.471893 191.25 460.742035 C 190.012497 461.012146 189 460.777527 189 460.220612 C 189 459.663727 193.875656 451.173767 199.834808 441.354034 C 205.793945 431.534332 217.566315 412.25 225.995605 398.5 C 234.424911 384.75 244.961746 367.739136 249.410812 360.69809 C 253.859863 353.657043 260.244812 345.062714 263.599609 341.599609 C 266.954407 338.136475 271.764069 333.882355 274.287781 332.146027 C 276.811462 330.409668 282.321716 327.609406 286.532745 325.923248 C 291.447144 323.955414 297.288971 322.531219 302.844574 321.946503 C 307.605072 321.445465 336.128937 321.027527 366.230957 321.017761 C 420.961884 321 420.961884 321 421.396118 323.25 C 421.634949 324.487488 422.323273 331.799988 422.925751 339.5 C 423.528198 347.200012 424.877228 356.875 425.923553 361 C 426.969879 365.125 428.851837 371.9758 430.105652 376.223999 C 431.359497 380.472168 432.036407 384.29718 431.609894 384.723999 C 431.18338 385.150787 405.78418 385.601227 375.167206 385.724976 C 344.550232 385.848724 317.618958 386.209076 315.319916 386.525757 C 311.328156 387.075623 310.87262 387.515991 305.208313 396.300781 C 301.945984 401.360352 293.532806 415.005585 286.51236 426.623535 L 273.747894 447.74704 Z"/>
    <path id="path2" fill="#ff6029" fill-rule="evenodd" stroke="none" d="M 624.942871 448 C 554.383667 448 541.915833 447.672791 541.435303 446.895264 C 541.047791 446.26828 544.257507 442.267273 548.857788 437.642975 C 553.315613 433.161835 558.835938 427.021454 561.125061 423.997711 C 563.414246 420.973969 566.785522 415.350006 568.616821 411.5 C 570.44812 407.649994 572.688965 401.575012 573.596436 398 C 574.769714 393.377869 575.100891 389.044312 574.742615 383 C 574.453674 378.123993 573.333374 371.941864 572.11499 368.5 C 570.946899 365.200012 567.917908 359.459045 565.383911 355.74231 C 562.849976 352.025543 558.464478 346.892212 555.638367 344.3349 C 552.812256 341.777557 548.474976 338.42981 546 336.895447 C 543.525024 335.361115 540.487488 333.385925 539.25 332.506195 C 537.456665 331.231293 537.00354 329.951996 537.017334 326.203308 C 537.026917 323.616486 537.666382 318.520111 538.438354 314.877991 C 539.210327 311.235901 541.246948 305.472839 542.96405 302.071167 C 545.102417 297.835083 549.509277 292.359558 556.950378 284.693176 C 567.814575 273.5 567.814575 273.5 573.513672 276.291321 C 576.648132 277.826538 582.652344 281.403503 586.856384 284.240173 C 591.060364 287.076782 598.714111 293.470703 603.864685 298.448853 C 609.015259 303.427002 616.112488 311.325012 619.636292 316 C 623.160034 320.674988 628.294189 329.014252 631.045532 334.531647 C 634.234009 340.925873 637.036316 348.540405 638.773926 355.531647 C 641.174805 365.191467 641.5 368.420074 641.5 382.594635 C 641.5 394.218719 640.995056 401.162903 639.682251 407.594635 C 638.682495 412.492584 636.744263 419.875 635.375061 424 C 634.005859 428.125 631.098511 435.212494 628.914246 439.75 L 624.942871 448 Z M 657.847778 438.750061 C 655.911621 439.256378 655.750122 439.012848 656.294312 436.407562 C 656.628357 434.808411 658.021301 429.80011 659.389709 425.278046 C 660.758118 420.755951 662.692749 412.23468 663.688843 406.341888 C 664.841553 399.522888 665.487793 390.696503 665.466431 382.063843 C 665.446106 373.85791 664.792297 365.142365 663.811218 360 C 662.459106 352.912872 662.408142 351.167572 663.504639 349.5 C 664.227966 348.399994 686.276428 326.575012 712.50116 301 C 739.713623 274.461853 761.283997 252.630188 762.74823 250.144348 C 764.159363 247.748718 765.519043 243.653442 765.769836 241.043701 C 766.099854 237.608765 765.639282 234.9729 764.10144 231.49646 C 762.541626 227.970154 757.396729 222.106445 744.738586 209.428467 C 735.257385 199.932312 717.872742 182.877258 706.106018 171.528259 C 694.339355 160.17926 682.994751 150.017639 680.895874 148.946899 C 678.596985 147.774048 675.060059 147 672 147 C 668.781555 147 665.377686 147.785828 662.710144 149.144592 C 660.223633 150.411194 647.446045 162.145813 631.5 177.80719 C 616.650024 192.392029 589.716614 218.989502 571.648071 236.912537 C 553.579529 254.835632 536.158936 272.650024 532.93573 276.5 C 529.712463 280.349976 525.28125 286.650024 523.088684 290.5 C 520.896057 294.349976 517.954102 301.487854 516.551025 306.361877 C 514.645325 312.982025 514 317.545441 514 324.401764 C 514 329.449677 514.692322 336.261841 515.538574 339.539886 C 516.384766 342.817963 518.340942 348.200012 519.88562 351.5 C 521.430298 354.799988 524.332336 359.448334 526.334534 361.82962 C 528.336792 364.210938 532.118103 367.949402 534.737488 370.137329 C 537.356873 372.325256 542.368469 375.734436 545.87439 377.713318 C 552.24884 381.311279 552.24884 381.311279 551.732422 387.744843 C 551.357849 392.411285 550.187866 396.282593 547.472961 401.839203 C 544.385437 408.158508 541.78363 411.427185 532.61499 420.505402 C 526.50177 426.55835 519.655579 432.759888 517.401245 434.286591 C 513.30249 437.062378 513.30249 437.062378 507.300903 433.670074 C 504.000031 431.804321 498.498627 428.375885 495.075562 426.051331 C 491.652496 423.726776 485.838318 418.982056 482.155121 415.507507 C 478.471924 412.03299 472.862732 405.585114 469.690247 401.178925 C 466.517792 396.772736 461.780823 388.961914 459.163727 383.821564 C 456.5466 378.681183 453.167694 370.655945 451.65506 365.987701 C 450.142426 361.319458 448.189484 353.196198 447.315186 347.936035 C 446.113556 340.70636 445.860931 334.482513 446.280182 322.436035 C 446.721375 309.759766 447.3638 304.497253 449.420746 296.709106 C 450.843018 291.324097 453.357239 283.449097 455.007935 279.209106 C 456.65863 274.969116 460.369629 267.105469 463.254608 261.734436 C 466.139587 256.363403 471.372925 247.813354 474.884308 242.734436 C 480.066101 235.239319 493.062317 221.743896 543.884277 171.084045 C 578.322937 136.755249 610.314697 105.325806 614.977173 101.240845 C 621.086182 95.888428 626.254211 92.46344 633.477173 88.980469 C 638.989685 86.322205 646.875 83.328308 651 82.327332 C 656.350037 81.029053 662.369934 80.506287 672 80.503662 C 681.667053 80.501038 687.629395 81.017761 693 82.323608 C 697.125 83.32666 705 86.337891 710.5 89.015259 C 716 91.692688 723.038086 95.902344 726.140198 98.370117 C 729.242371 100.83783 749.900574 120.776611 772.047424 142.678467 C 794.194275 164.580322 814.221619 184.915955 816.552612 187.868835 C 818.883606 190.821716 822.652649 196.995056 824.928284 201.587463 C 827.203918 206.17981 829.978027 213.438843 831.093018 217.718628 C 832.208008 221.998352 833.381104 229.608337 833.69989 234.6297 C 834.109863 241.087708 833.783142 246.51593 832.583435 253.179138 C 831.650574 258.360046 829.441284 266.185303 827.67395 270.568604 C 825.906555 274.951965 822.368042 281.679688 819.810608 285.519165 C 816.724609 290.1521 805.46405 302.090576 786.330322 321.015076 C 770.473633 336.698364 741.299988 365.276764 721.5 384.522614 C 701.700012 403.768463 681.674988 422.581177 677 426.328613 C 672.325012 430.07605 666.589417 434.276764 664.254333 435.663544 C 661.919189 437.050323 659.036255 438.43927 657.847778 438.750061 Z"/>
    <path id="path3" fill="#254169" fill-rule="evenodd" stroke="none" d="M 386.5 685.262878 C 398.58493 703.835815 405.370392 712.377319 411.457825 718.765076 C 416.934631 724.512146 426.472931 733.24231 432.654053 738.165466 C 439.314178 743.470215 443.691254 747.641052 443.39856 748.403748 C 443.040253 749.337463 438.593536 749.869629 427.202332 750.342102 C 418.56604 750.700256 381.125 750.892212 344 750.768555 C 306.875 750.644958 267.274994 750.4375 256 750.307617 C 239.164688 750.113708 233.891113 749.691223 226.5 747.944397 C 221.550003 746.774475 213.899994 744.133545 209.5 742.075623 C 205.100006 740.0177 198.350006 735.80426 194.5 732.712402 C 190.649994 729.620605 184.671082 723.807922 181.213501 719.79541 C 177.569717 715.566833 173.045853 708.716614 170.452103 703.5 C 167.990906 698.549988 164.969833 690.544006 163.738602 685.708923 C 161.53212 677.043945 161.5 675.9729 161.5 611.059937 C 161.5 552.91217 161.699432 544.23822 163.203461 536.969482 C 164.286163 531.737 166.729584 525.049683 169.908615 518.61853 C 172.717163 512.936768 177.231995 505.81311 180.205154 502.372253 C 183.117325 499.002014 188.199997 493.921051 191.5 491.081207 C 194.867157 488.183594 202.326874 483.510071 208.5 480.430695 C 214.550003 477.41275 222.180725 474.393738 225.457169 473.721771 C 229.956894 472.79892 261.059814 472.5 352.586639 472.5 C 465.417328 472.5 474.369568 472.624176 482.629456 474.30368 C 487.50827 475.295715 496.225006 477.698486 502 479.643158 C 507.774994 481.58786 517.411072 485.621155 523.413513 488.606049 C 529.415894 491.590942 537.965881 496.462219 542.413513 499.431091 C 546.861084 502.399963 553.94519 507.789795 558.156006 511.408508 C 562.36676 515.027222 568.633423 521.253174 572.081787 525.244019 C 575.530212 529.234802 580.561035 535.875 583.261414 540 C 585.961792 544.125 589.931274 551.182861 592.082581 555.684082 C 594.233826 560.185303 597.353638 567.926514 599.015503 572.886841 C 600.677307 577.847107 602.763733 586.33252 603.651855 591.743164 C 604.88092 599.230713 605.142639 605.632324 604.747314 618.540405 C 604.322021 632.428711 603.758484 637.291565 601.635315 645.392944 C 600.209351 650.834106 598.369873 656.312744 597.547546 657.567749 C 596.401001 659.317627 594.705933 660.018494 590.276245 660.574463 C 587.099304 660.973145 572.125 660.993652 557 660.620056 C 541.875 660.24646 527.7677 659.474731 525.650452 658.905029 C 522.528076 658.064941 521.897888 657.498596 522.314148 655.906738 C 522.596436 654.827271 524.147156 651.819214 525.760254 649.222046 C 527.373352 646.624939 529.600159 642.891968 530.708679 640.926636 C 531.8172 638.961243 533.702209 634.739197 534.897583 631.54425 C 536.247375 627.936646 537.285095 622.280151 537.636108 616.617676 C 538.027039 610.309387 537.733582 605.309143 536.683533 600.389709 C 535.848816 596.479065 533.604431 590.178833 531.695984 586.389221 C 529.787598 582.599609 526.129333 576.709595 523.566467 573.300293 C 521.003662 569.890991 516.565308 564.995117 513.70343 562.420532 C 510.841522 559.845947 505.879944 555.959167 502.677643 553.783325 C 499.475342 551.607422 494.075348 548.537109 490.677643 546.960327 C 487.279938 545.383545 480.450012 542.926025 475.5 541.499268 C 468.921783 539.603027 462.194641 538.612915 450.5 537.819458 C 440.062256 537.111328 401.126495 536.867188 338.5 537.117004 C 242.5 537.5 242.5 537.5 238 540.006531 C 234.843964 541.764465 232.753357 543.925659 231 547.242798 C 228.5 551.972473 228.5 551.972473 228.5 610.984253 C 228.5 669.996033 228.5 669.996033 230.762695 674.248047 C 232.007172 676.586609 234.673508 679.625 236.687866 681 C 240.350342 683.5 240.350342 683.5 282.425171 683.712463 C 305.566315 683.829285 338.450012 684.225952 355.5 684.593872 L 386.5 685.262878 Z M 402.075653 561 C 431.854523 561.07605 446.575012 561.476196 454 561.938354 C 462.778229 562.484619 469.006287 563.387817 471.806641 564.520508 C 474.944214 565.789612 475.951569 566.683838 475.51767 567.814575 C 475.190094 568.668213 473.360748 571.93689 471.452515 575.078186 C 469.54425 578.219482 466.882263 583.278503 465.536987 586.320435 C 464.191711 589.362366 462.337158 595.571655 461.415802 600.118835 C 460.31369 605.557861 459.923798 610.800781 460.276123 615.443237 C 460.570709 619.324463 461.559845 625.383667 462.474213 628.908142 C 463.38858 632.432617 465.888977 638.801392 468.030609 643.060913 C 470.172241 647.320374 474.119995 653.443604 476.803345 656.667969 C 479.486725 659.892334 485.216125 664.973511 489.53537 667.959412 C 493.854614 670.945313 500.788605 674.855164 504.944275 676.64801 C 509.099915 678.440796 515.200012 680.688477 518.5 681.642822 C 524.00293 683.234131 534.026855 683.40979 639.5 683.763123 C 749.459045 684.13147 754.69574 684.067505 758.966125 682.304688 C 761.948303 681.073608 764.440369 679.027039 766.466125 676.145325 C 769.5 671.829651 769.5 671.829651 769.807922 615.164795 C 769.977295 583.999146 769.829285 556.112793 769.479065 553.195007 C 769.007751 549.26825 768.044861 546.981812 765.772705 544.393921 C 764.084412 542.471069 761.307434 540.143066 759.601563 539.22052 C 756.797302 537.703979 749.438904 537.507996 682.838623 537.175659 L 609.177246 536.808105 L 602.711243 527.154053 C 599.154968 521.84436 593.089478 513.900024 589.232483 509.5 C 585.375427 505.100006 578.596619 498.410675 574.168396 494.634796 C 569.740173 490.858948 561.962708 484.779907 556.885132 481.125793 C 551.807556 477.47168 547.722778 474.036011 547.807922 473.490967 C 547.893005 472.945923 551.683533 472.207153 556.231323 471.849243 C 560.779114 471.491333 596.450012 471.191925 635.5 471.183899 C 674.549988 471.175873 721.125 471.517761 739 471.943665 C 768.122375 472.637543 772.088867 472.931915 777.166382 474.776367 C 780.282837 475.908447 786.092224 478.470551 790.07605 480.469879 C 794.059814 482.469238 799.680115 485.672058 802.565552 487.587311 C 805.450989 489.502563 810.989075 494.414398 814.872437 498.502533 C 820.315735 504.232941 823.081909 508.290649 826.948853 516.217773 C 829.707642 521.872986 832.906128 530.099976 834.056702 534.5 C 835.87262 541.444641 836.264343 547.05127 837.025818 577 C 837.508362 595.974976 837.909729 622.75 837.917847 636.5 C 837.926025 650.25 837.514832 666 837.004211 671.5 C 836.49353 677 835.363403 684.200012 834.492798 687.5 C 833.622131 690.799988 831.485901 696.597412 829.745483 700.383179 C 828.005127 704.168945 824.832458 709.793945 822.695129 712.883179 C 820.557861 715.972412 816.489563 720.916748 813.654541 723.870605 C 810.81958 726.824463 805.799988 731.260498 802.5 733.728516 C 799.200012 736.196472 793.923401 739.518188 790.77417 741.110107 C 787.624939 742.701965 781.549927 745.211304 777.27417 746.686462 C 769.693359 749.301819 768.82843 749.375488 742.5 749.64917 C 727.650024 749.803589 692.325012 750.085693 664 750.276123 C 635.674988 750.466553 591.575012 750.329041 566 749.970581 C 523.077454 749.368958 518.738831 749.148804 509.605988 747.109436 C 504.164307 745.894287 495.614319 743.584961 490.605988 741.977539 C 485.597687 740.370117 476.100006 736.385986 469.5 733.123901 C 462.899994 729.861816 453.519073 724.356873 448.653503 720.890625 C 443.787933 717.424377 436.312592 711.193481 432.041687 707.044189 C 427.770782 702.894897 421.468933 695.6875 418.037598 691.02771 C 414.606262 686.367981 410.076538 679.130005 407.971497 674.943359 C 405.866486 670.756653 402.550507 662.752625 400.602661 657.156616 C 398.654816 651.560608 396.340454 643.136169 395.459656 638.435669 C 394.374817 632.64624 393.85434 624.139099 393.846222 612.064087 C 393.838074 599.987427 394.342926 591.539795 395.411652 585.869446 C 396.279236 581.266235 398.133575 573.787476 399.532379 569.25 L 402.075653 561 Z"/>
</svg>
